<svg version="1.1" xmlns="http://www.w3.org/2000/svg" xmlns:xlink="http://www.w3.org/1999/xlink" width="65.4078" height="54.43037" viewBox="0,0,65.4078,54.43037"><g transform="translate(-200.72876,-153.22815)"><g stroke-miterlimit="10"><path d="M214.93491,201.83336c0,-9.68135 0,-37.21523 0,-43c0,-2.08079 0.55954,-4.04271 1.30875,-4.04271c4.04908,0 39.12206,0 46.83468,0c0.95966,0 1.49572,1.78013 1.49572,3.70938c0,5.5047 0,32.35602 0,42.66667c0,2.51243 -0.42982,4.04272 -1.02831,4.04272c-3.64885,0 -39.04916,0 -47.02165,0c-1.01835,0 -1.5892,-1.26267 -1.5892,-3.37606z" fill="#b3b3b3" stroke="#808080" stroke-width="3.125" stroke-linecap="butt"/><text transform="translate(201.06832,204.8289) scale(0.22637,0.22637)" font-size="40" xml:space="preserve" fill="#808080" stroke="none" stroke-width="1" stroke-linecap="butt" font-family="&quot;Comic Sans&quot;, Handwriting" font-weight="normal" text-anchor="start"><tspan x="0" dy="0">(L)</tspan></text><path d="M224.22222,181.62501c0,-8.71383 7.06395,-15.77778 15.77778,-15.77778c8.71383,0 15.77778,7.06395 15.77778,15.77778c0,8.71383 -6.93895,14.90278 -15.65278,14.90278c-8.71383,0 -15.90278,-6.18895 -15.90278,-14.90278z" fill="#e6e6e6" stroke="#cfdfe6" stroke-width="4" stroke-linecap="butt"/><path d="M252.54167,198.47443c0,-1.08156 0.87678,-1.95833 1.95833,-1.95833c1.08156,0 1.79167,0.87678 1.79167,1.95833c0,1.08156 -0.79344,1.29167 -1.875,1.29167c-1.08156,0 -1.875,-0.21011 -1.875,-1.29167z" fill="#e6e6e6" stroke="#cfdfe6" stroke-width="1" stroke-linecap="butt"/><path d="M249.375,198.55683c0,-0.52876 0.42865,-0.95741 0.95741,-0.95741c0.52876,0 0.87593,0.42865 0.87593,0.95741c0,0.52876 -0.3879,0.63148 -0.91667,0.63148c-0.52876,0 -0.91667,-0.10272 -0.91667,-0.63148z" fill="#e6e6e6" stroke="#cfdfe6" stroke-width="0.5" stroke-linecap="butt"/><path d="M224.45833,198.47444c0,-1.08156 0.87678,-1.95834 1.95834,-1.95834c1.08156,0 1.79166,0.87678 1.79166,1.95834c0,1.08156 -0.79344,1.29166 -1.875,1.29166c-1.08156,0 -1.875,-0.2101 -1.875,-1.29166z" fill="#e6e6e6" stroke="#cfdfe6" stroke-width="1" stroke-linecap="butt"/><path d="M228.93474,180.47118c-0.15037,-0.89706 2.3232,-5.89406 3.09823,-6.30331c0.44324,-0.23404 3.95039,-2.12894 3.95039,-2.12894" fill="none" stroke="#cfdfe6" stroke-width="1.5" stroke-linecap="round"/></g></g></svg>