<svg version="1.1" xmlns="http://www.w3.org/2000/svg" xmlns:xlink="http://www.w3.org/1999/xlink" width="66.86114" height="66.84442" viewBox="0,0,66.86114,66.84442"><g transform="translate(-206.56943,-146.57779)"><g stroke-miterlimit="10"><path d="M223.81647,180c0,-8.93792 7.24561,-16.18353 16.18353,-16.18353c8.93792,0 16.18354,7.24561 16.18354,16.18353c0,8.93792 -7.24561,16.18353 -16.18354,16.18353c-8.93792,0 -16.18353,-7.24561 -16.18353,-16.18353z" fill="#a1b359" stroke="#728040" stroke-width="4"/><path d="M238.71524,180.48927c0,0 -1.12133,-2.42992 -2.12212,-3.85762c-0.52155,-0.74402 -1.78043,-1.7236 -2.69763,-2.88701c-1.53947,-1.95271 -2.77716,-4.09289 -2.77716,-4.09289c0,0 0.83006,-0.99606 1.22595,-1.06989c0.51081,-0.09526 1.73753,1.14407 2.67113,1.20853c0.66689,0.04604 1.18421,-1.08617 1.18421,-1.08617c0,0 1.07573,1.06889 1.85841,2.1773c0.57756,0.81794 1.30658,2.81307 2.36427,4.4068c1.40103,2.11107 3.10435,3.79226 3.10435,3.79226z" fill="#593600" stroke="#261700" stroke-width="4"/><path d="M206.56943,213.42221v-66.84442h66.86114v66.84442z" fill="none" stroke="none" stroke-width="0"/></g></g></svg>