<svg version="1.1" xmlns="http://www.w3.org/2000/svg" xmlns:xlink="http://www.w3.org/1999/xlink" width="65.40781" height="54.43037" viewBox="0,0,65.40781,54.43037"><g transform="translate(-200.72875,-153.22815)"><g stroke-miterlimit="10"><path d="M214.93491,201.83336c0,-9.68135 0,-37.21523 0,-43c0,-2.08079 0.55954,-4.04271 1.30875,-4.04271c4.04908,0 39.12206,0 46.83468,0c0.95966,0 1.49572,1.78013 1.49572,3.70938c0,5.5047 0,32.35602 0,42.66667c0,2.51243 -0.42982,4.04272 -1.02831,4.04272c-3.64885,0 -39.04916,0 -47.02165,0c-1.01835,0 -1.5892,-1.26267 -1.5892,-3.37606z" fill="#b3b3b3" stroke="#808080" stroke-width="3.125" stroke-linecap="butt"/><text transform="translate(201.06831,204.82889) scale(0.22637,0.22637)" font-size="40" xml:space="preserve" fill="#808080" stroke="none" stroke-width="1" stroke-linecap="butt" font-family="&quot;Comic Sans&quot;, Handwriting" font-weight="normal" text-anchor="start"><tspan x="0" dy="0">(L)</tspan></text><path d="M235.27238,175.43531c0,0 1.56105,-8.75327 5.62282,-12.2399c1.33806,-1.1486 7.33028,-3.30551 8.72825,6.19604c1.71045,11.62531 -1.29279,28.38635 -1.29279,28.38635" fill="none" stroke="#838c23" stroke-width="2.5" stroke-linecap="round"/><path d="M234.52837,191.04135c-1.42686,0 -2.58354,-1.7299 -2.58354,-3.86382c0,-2.13392 2.64774,-1.75193 2.64774,-1.75193c0,0 2.51936,-0.20507 2.51936,1.75193c0,2.13392 -1.15668,3.86382 -2.58354,3.86382z" fill="#bf8f8f" stroke="#8c6969" stroke-width="2.5" stroke-linecap="butt"/><path d="M237.22303,174.48394c0,1.957 -2.51936,1.7519 -2.51936,1.7519c0,0 -2.64771,0.38202 -2.64771,-1.7519c0,-2.13392 1.15668,-3.86382 2.58354,-3.86382c1.42686,0 2.58354,1.7299 2.58354,3.86382z" fill="#bf8f8f" stroke="#8c6969" stroke-width="2.5" stroke-linecap="butt"/><path d="M224.37331,180.77517c0,-1.42686 1.7299,-2.58354 3.86382,-2.58354c2.13392,0 1.75193,2.64771 1.75193,2.64771c0,0 0.20507,2.51936 -1.75193,2.51936c-2.13392,0 -3.86382,-1.15668 -3.86382,-2.58354z" fill="#bf8f8f" stroke="#8c6969" stroke-width="2.5" stroke-linecap="butt"/><path d="M240.93073,183.46986c-1.957,0 -1.7519,-2.51936 -1.7519,-2.51936c0,0 -0.38202,-2.64774 1.7519,-2.64774c2.13392,0 3.86382,1.15668 3.86382,2.58354c0,1.42686 -1.7299,2.58354 -3.86382,2.58354z" fill="#bf8f8f" stroke="#8c6969" stroke-width="2.5" stroke-linecap="butt"/><path d="M226.77336,186.39541c0.04675,-0.94831 0.55441,-2.04074 1.45659,-2.94291c1.50891,-1.50891 3.11104,0.63342 3.11104,0.63342c0,0 1.92646,1.63643 0.54265,3.02024c-0.85627,0.85627 -1.88394,1.35715 -2.79711,1.44586c-0.696,0.06762 -1.32549,-0.1042 -1.76188,-0.54058c0,0 -0.58273,-0.97826 -0.55129,-1.61603z" fill="#bf8f8f" stroke="#8c6969" stroke-width="2.5" stroke-linecap="butt"/><path d="M240.93793,178.209c-1.38381,1.38381 -3.02024,-0.54265 -3.02024,-0.54265c0,0 -2.14235,-1.6021 -0.63342,-3.11101c1.50891,-1.50891 3.55003,-1.91424 4.55897,-0.90531c1.00893,1.00893 0.60363,3.05006 -0.90528,4.55897z" fill="#bf8f8f" stroke="#8c6969" stroke-width="2.5" stroke-linecap="butt"/><path d="M227.40323,173.57145c1.00893,-1.00893 3.05006,-0.60363 4.55897,0.90531c1.50891,1.50891 -0.63342,3.11104 -0.63342,3.11104c0,0 -1.63643,1.92646 -3.02024,0.54265c-1.50891,-1.50891 -1.91421,-3.55003 -0.90528,-4.55897z" fill="#bf8f8f" stroke="#8c6969" stroke-width="2.5" stroke-linecap="butt"/><path d="M237.20569,187.18473c-1.38381,-1.38381 0.54265,-3.02024 0.54265,-3.02024c0,0 1.6021,-2.14235 3.11101,-0.63342c1.50891,1.50891 1.91424,3.55003 0.90531,4.55897c-1.00893,1.00893 -3.05006,0.60363 -4.55897,-0.90531z" fill="#bf8f8f" stroke="#8c6969" stroke-width="2.5" stroke-linecap="butt"/><path d="M234.52837,185.5965c-2.47012,0 -4.4726,-2.00245 -4.4726,-4.47257c0,-2.47012 2.00245,-4.47257 4.4726,-4.47257c2.47012,0 4.47257,2.00245 4.47257,4.47257c0,2.47012 -2.00245,4.47257 -4.47257,4.47257z" fill="#bfa830" stroke="#8c7b23" stroke-width="2.5" stroke-linecap="butt"/></g></g></svg>