<svg version="1.1" xmlns="http://www.w3.org/2000/svg" xmlns:xlink="http://www.w3.org/1999/xlink" width="117.50001" height="52.91877" viewBox="0,0,117.50001,52.91877"><g transform="translate(-181.25,-151.04062)"><g stroke-miterlimit="10"><path d="M182.5,199.33333c0,-9.68135 0,-37.21523 0,-43c0,-2.08079 1.2963,-4.04271 3.03202,-4.04271c9.38057,0 90.63485,0 108.50283,0c2.22326,0 3.46516,1.78013 3.46516,3.70938c0,5.5047 0,32.35602 0,42.66667c0,2.51243 -0.99576,4.04272 -2.3823,4.04272c-8.45337,0 -90.46596,0 -108.93598,0c-2.35924,0 -3.68173,-1.26267 -3.68173,-3.37606z" fill="#b3b3b3" stroke="#808080" stroke-width="2.5"/><text transform="translate(188.27327,187.59454) scale(1.01425,1.01425)" font-size="40" xml:space="preserve" fill="#808080" stroke="#808080" stroke-width="2" font-family="&quot;Comic Sans&quot;, Handwriting" font-weight="400" text-anchor="start"><tspan x="0" dy="0">Co-op</tspan></text><text transform="translate(284.75,162.70384) scale(0.22637,0.22637)" font-size="40" xml:space="preserve" fill="#808080" stroke="none" stroke-width="1" font-family="&quot;Comic Sans&quot;, Handwriting" font-weight="normal" text-anchor="start"><tspan x="0" dy="0">(c)</tspan></text></g></g></svg>