<svg version="1.1" xmlns="http://www.w3.org/2000/svg" xmlns:xlink="http://www.w3.org/1999/xlink" width="26.19567" height="28" viewBox="0,0,26.19567,28"><g transform="translate(-226.77763,-164.81909)"><g stroke-miterlimit="10"><text transform="translate(246.76237,186.56909) scale(0.5,0.5)" font-size="40" xml:space="preserve" fill="#1a1a1a" stroke="none" stroke-width="1" font-family="Sans Serif" font-weight="normal" text-anchor="start"><tspan x="0" dy="0">:</tspan></text><path d="M227.77767,180.17933c0,-4.04006 1.96561,-5.73353 5.63467,-6.15281c0.58359,-0.06669 1.75591,0.79271 2.39852,0.79271c0.79697,0 1.88306,-0.91097 2.58219,-0.82854c3.40868,0.40187 5.50668,1.85744 5.50668,5.74312c0,3.93018 -2.17287,9.79752 -5.80083,10.75842c-0.69461,0.18398 -1.53557,-0.49765 -2.28805,-0.49765c-0.79172,0 -1.44672,0.67113 -2.17369,0.46816c-3.57271,-0.9975 -5.85952,-6.39248 -5.85952,-10.28342z" fill="#b32d38" stroke="#802028" stroke-width="2"/><path d="M236.02411,173.09053c0.29476,-0.56046 1.50406,-2.8598 1.50406,-2.8598c0,0 0.79881,-1.09732 1.25318,-1.41804c0.73115,-0.51607 2.71342,-1.38178 2.71342,-1.38178c0,0 0.16685,1.36102 -0.17215,2.14197c-0.51567,1.18793 -2.92764,3.68284 -2.92764,3.68284c0,0 -1.61792,0.50751 -2.0912,0.56697c-0.24802,0.03116 -0.4024,-0.49879 -0.27968,-0.73215z" fill="#70b32d" stroke="#508020" stroke-width="1.5"/></g></g></svg>