<svg version="1.1" xmlns="http://www.w3.org/2000/svg" xmlns:xlink="http://www.w3.org/1999/xlink" width="66.86114" height="66.84442" viewBox="0,0,66.86114,66.84442"><defs><linearGradient x1="221.63722" y1="180.08972" x2="231.02137" y2="180.08972" gradientUnits="userSpaceOnUse" id="color-1"><stop offset="0" stop-color="#ccff00" stop-opacity="0"/><stop offset="1" stop-color="#ccff00" stop-opacity="0"/></linearGradient><linearGradient x1="221.63722" y1="180.08972" x2="231.02137" y2="180.08972" gradientUnits="userSpaceOnUse" id="color-2"><stop offset="0" stop-color="#80ff00" stop-opacity="0.50196"/><stop offset="1" stop-color="#80ff00" stop-opacity="0"/></linearGradient></defs><g transform="translate(-206.56943,-146.57779)"><g stroke-miterlimit="10"><path d="M240.00002,196.72898c-9.23917,0 -16.72899,-7.48981 -16.72899,-16.72898c0,-9.23916 7.48982,-16.72898 16.72899,-16.72898c9.23916,0 16.72898,7.48981 16.72898,16.72898c0,9.23916 -7.48981,16.72898 -16.72898,16.72898z" fill="#b3002b" stroke="#80001f" stroke-width="4"/><path d="M206.56943,213.42221v-66.84442h66.86114v66.84442z" fill="none" stroke="none" stroke-width="0"/><path d="M221.63722,182.11622c0,-0.79124 0,-3.08025 0,-4.27493c0,-0.96784 0.77722,-1.72759 1.57246,-1.72759c1.78162,0 8.91538,0 12.86402,0c1.58978,0 2.66326,0.86341 2.66326,1.9219c0,1.16007 0,2.55445 0,3.30336c0,1.00001 -1.07348,2.54735 -2.66326,2.54735c-3.94863,0 -11.08239,0 -12.86402,0c-0.79524,0 -1.57246,-0.77008 -1.57246,-1.77009z" fill="#b3002b" stroke="#80001f" stroke-width="4"/><path d="M234.8552,186.19683c0,0 1.55453,-3.47572 1.55453,-5.63514c0,-2.91928 -1.55453,-10.2987 -1.55453,-10.2987h8.74419v15.93384z" fill="#b3002b" stroke="none" stroke-width="0"/><path d="M221.63722,182.20593c0,-0.79124 0,-3.08025 0,-4.27493c0,-0.96784 0.42653,-1.72759 0.86295,-1.72759c0.97773,0 4.89267,0 7.05964,0c0.87246,0 1.46156,0.86341 1.46156,1.9219c0,1.16007 0,2.55445 0,3.30336c0,1.00001 -0.58911,2.54735 -1.46156,2.54735c-2.16697,0 -6.08191,0 -7.05964,0c-0.43642,0 -0.86295,-0.77008 -0.86295,-1.77009z" fill="url(#color-1)" stroke="url(#color-2)" stroke-width="4"/><path d="M235.42248,178.14915c1.30668,0.001 4.53802,-0.13844 3.52266,2.39993c-0.21833,0.54583 -0.84077,0.86519 -1.3811,1.09677c-0.27633,0.11843 -0.59739,-0.07078 -0.89366,-0.12187c-0.28304,-0.0488 -4.87744,0.05247 -7.41104,0.04423c-0.22914,0.11014 -0.48597,0.17185 -0.75721,0.17185c-0.31621,0 -0.61284,-0.08387 -0.86884,-0.23058c-0.52647,-0.30169 -0.88116,-0.86914 -0.88116,-1.51942c0,-0.9665 0.7835,-1.75 1.75,-1.75c0.09833,0 0.19478,0.28083 0.28869,0.29642c0.8913,-0.33977 1.92169,-0.33781 2.98331,-0.33523c1.23014,0.00298 2.5022,-0.05298 3.64836,-0.0521z" fill="#b3002b" stroke="none" stroke-width="0.5"/></g></g></svg>