<svg version="1.1" xmlns="http://www.w3.org/2000/svg" xmlns:xlink="http://www.w3.org/1999/xlink" width="100.25027" height="55.7016" viewBox="0,0,100.25027,55.7016"><g transform="translate(-189.87486,-149.33292)"><g stroke-miterlimit="10"><path d="M191.12487,199.33333c0,-9.68135 0,-37.21523 0,-43c0,-2.08079 1.10186,-4.04271 2.57722,-4.04271c7.97351,0 77.03983,0 92.22765,0c1.88978,0 2.94539,1.78013 2.94539,3.70938c0,5.5047 0,32.35602 0,42.66667c0,2.51243 -0.8464,4.04272 -2.02496,4.04272c-7.18538,0 -76.89627,0 -92.59583,0c-2.00536,0 -3.12948,-1.26267 -3.12948,-3.37606z" fill="#595959" stroke="#8c8c8c" stroke-width="2.5"/><text transform="translate(196.43672,191.10912) scale(1.16045,1.16045)" font-size="40" xml:space="preserve" fill="#8c8c8c" stroke="#8c8c8c" stroke-width="2" font-family="&quot;Comic Sans&quot;, Handwriting" font-weight="400" text-anchor="start"><tspan x="0" dy="0">Quit</tspan></text><text transform="translate(277.3,162.32884) scale(0.22637,0.22637)" font-size="40" xml:space="preserve" fill="#8c8c8c" stroke="none" stroke-width="1" font-family="&quot;Comic Sans&quot;, Handwriting" font-weight="normal" text-anchor="start"><tspan x="0" dy="0">(q)</tspan></text></g></g></svg>