<svg version="1.1" xmlns="http://www.w3.org/2000/svg" xmlns:xlink="http://www.w3.org/1999/xlink" width="50.86165" height="84.04483" viewBox="0,0,50.86165,84.04483"><g transform="translate(-214.39071,-137.22583)"><g stroke-miterlimit="10"><path d="M236.16903,184.854c0,-15.18783 -22.89616,-32.5 -7.70833,-32.5c2.6816,0 19.0427,5.72281 27.99624,15.70836c6.33337,7.06338 6.79543,19.09143 6.79543,22.49997c0,6.38125 -3.02224,13.41918 -9.15151,18.46909c-8.45884,6.96924 -22.00024,10.23924 -30.80682,10.23924c-15.18783,0 12.875,-19.22884 12.875,-34.41667z" fill="#e6cf00" stroke="#b3a100" stroke-width="4"/><path d="M225.49249,175.52722l0.48233,-6.88914l32.93663,2.35064l-0.35426,6.37571c0,0 -0.25308,1.33749 -1.10377,2.67932c-0.77754,1.22644 -2.09096,2.45444 -3.41883,2.70963c-1.70143,0.32698 -4.41787,-1.24022 -6.33417,-3.34239c-1.85162,-2.03118 -2.89423,-4.59023 -5.04244,-4.8218c-1.92172,-0.20716 -3.21696,2.57896 -5.10046,4.16201c-2.29251,1.92682 -5.08356,2.74132 -6.22066,2.67813c-1.38081,-0.07673 -3.11831,-1.16091 -4.13223,-2.4144c-1.30964,-1.61911 -1.71211,-3.4877 -1.71211,-3.4877z" fill="#1a1a1a" stroke="none" stroke-width="4.5"/><path d="M221.56916,154.00114c-1.32001,-2.19429 -4.82152,-7.54578 -4.82152,-7.54578l3.40442,-5.72602c0,0 6.26612,7.82303 8.316,9.92513c0.47026,0.48224 1.17724,0.91627 1.80698,1.24569c0.75031,0.39248 0.95884,0.78556 0.52139,0.9365c-1.07161,0.36977 -5.65397,1.95096 -7.47288,2.57859c-0.46415,0.16016 -1.26508,-0.60073 -1.75438,-1.41412z" fill="#735600" stroke="#403000" stroke-width="4"/></g></g></svg>