<svg version="1.1" xmlns="http://www.w3.org/2000/svg" xmlns:xlink="http://www.w3.org/1999/xlink" width="88.18334" height="99.95241" viewBox="0,0,88.18334,99.95241"><g transform="translate(-195.91865,-85.52379)"><g stroke-miterlimit="10"><g stroke-linecap="butt"><path d="M237.56666,140.23584c1.11119,-11.34341 -14.72276,-25.94859 -3.37936,-24.8374c2.00282,0.19619 13.80381,5.66745 19.76041,13.78047c4.21345,5.73883 3.67855,14.75608 3.42917,17.30184c-0.46687,4.766 -3.23903,9.80133 -8.18629,13.12455c-6.82759,4.58627 -17.18056,6.03782 -23.75797,5.39351c-11.34341,-1.11119 11.02286,-13.41956 12.13405,-24.76297z" fill="#e6cf00" stroke="#b3a100" stroke-width="4"/><path d="M230.27499,132.48877l0.86427,-5.11004l24.42756,4.16538l-0.73106,4.73594c0,0 -0.28688,0.98042 -1.02041,1.92036c-0.67046,0.85911 -1.74126,1.68018 -2.75168,1.77363c-1.29468,0.11973 -3.20886,-1.24951 -4.4863,-2.95977c-1.23432,-1.65251 -1.82579,-3.64008 -3.41329,-3.9702c-1.42013,-0.29532 -2.59135,1.6908 -4.11391,2.73534c-1.85319,1.27136 -3.99735,1.67549 -4.842,1.5451c-1.02568,-0.15833 -2.24405,-1.0952 -2.90961,-2.10558c-0.85968,-1.30509 -1.02356,-2.73014 -1.02356,-2.73014z" fill="#1a1a1a" stroke="none" stroke-width="4.5"/><path d="M228.91966,116.12444c-0.82534,-1.73543 -3.04901,-5.98851 -3.04901,-5.98851l2.96161,-4.02754c0,0 4.10766,6.30128 5.48486,8.02125c0.31594,0.39458 0.81221,0.77048 1.25845,1.06258c0.53167,0.34803 0.65866,0.65686 0.32089,0.73759c-0.82741,0.19777 -4.36554,1.04346 -5.76996,1.37915c-0.35838,0.08566 -0.9009,-0.54123 -1.20684,-1.18453z" fill="#735600" stroke="#403000" stroke-width="4"/></g><g><path d="M198.27415,115.12858c0,-6.65642 0,-22.38647 0,-25.54391c0,-1.08286 0.82509,-2.06087 1.9524,-2.06087c6.52893,0 66.85422,0 79.39764,0c1.46463,0 2.2778,1.06545 2.2778,2.22357c0,3.29097 0,19.3004 0,25.70661c0,1.64552 -1.05391,2.65743 -2.4405,2.65743c-7.1862,0 -67.00889,0 -79.07224,0c-1.36191,0 -2.1151,-1.14592 -2.1151,-2.98283z" fill="#bf9960" stroke="#8c7046" stroke-width="4" stroke-linecap="butt"/><text transform="translate(202.96387,112.85078) scale(0.69743,0.69743)" font-size="40" xml:space="preserve" fill="#1a1a1a" stroke="#1a1a1a" stroke-width="2" stroke-linecap="butt" font-family="&quot;Comic Sans&quot;, Handwriting" font-weight="normal" text-anchor="start"><tspan x="0" dy="0">SHOP</tspan></text><path d="M198.39277,118.16058v29.8" fill="none" stroke="#8c7046" stroke-width="4" stroke-linecap="round"/><path d="M281.7834,148.56058v-30.4" fill="none" stroke="#8c7046" stroke-width="4" stroke-linecap="round"/><path d="M198.27415,155.147c0,-1.25949 0,-4.23584 0,-4.83327c0,-0.20489 0.82509,-0.38995 1.9524,-0.38995c6.52893,0 66.85422,0 79.39764,0c1.46463,0 2.2778,0.2016 2.2778,0.42073c0,0.6227 0,3.65191 0,4.86406c0,0.31136 -1.05391,0.50282 -2.4405,0.50282c-7.1862,0 -67.00889,0 -79.07224,0c-1.36191,0 -2.1151,-0.21682 -2.1151,-0.56439z" fill="#bf9960" stroke="#8c7046" stroke-width="4" stroke-linecap="butt"/><path d="M198.47416,178.01616c0,-5.56833 0,-18.72707 0,-21.36838c0,-0.90585 0.82509,-1.72399 1.9524,-1.72399c6.52893,0 66.85422,0 79.39764,0c1.46463,0 2.2778,0.89129 2.2778,1.86009c0,2.75301 0,16.14546 0,21.50448c0,1.37654 -1.05391,2.22303 -2.4405,2.22303c-7.1862,0 -67.00889,0 -79.07224,0c-1.36191,0 -2.1151,-0.9586 -2.1151,-2.49524z" fill="#bf9960" stroke="#8c7046" stroke-width="4" stroke-linecap="butt"/><path d="M197.91866,179.3585c0.56162,-6.21294 1.99251,-22.04219 2.27522,-25.16963c0.09506,-1.05152 0.91234,-1.9353 2.0821,-1.82957c4.04454,0.36561 13.32944,1.20492 15.74062,1.42288c1.11677,0.10095 2.20283,1.02605 2.07999,2.38497c-0.52746,5.83497 -1.95272,21.60195 -2.26126,25.01513c-0.11498,1.27199 -1.32626,2.38513 -2.40071,2.28801c-2.41175,-0.21801 -11.99582,-1.08437 -15.9856,-1.44503c-1.08564,-0.09814 -1.67096,-1.1115 -1.53037,-2.66676z" fill="#b300a1" stroke="#800073" stroke-width="4" stroke-linecap="butt"/><text transform="translate(205.64305,174.07261) rotate(7.67075) scale(0.5,0.5)" font-size="40" xml:space="preserve" fill="#1a1a1a" stroke="none" stroke-width="1" stroke-linecap="butt" font-family="&quot;Comic Sans&quot;, Handwriting" font-weight="normal" text-anchor="start"><tspan x="0" dy="0">!</tspan></text><path d="M228.16285,176.54459c0,-2.6452 0,-11.76655 0,-16c0,-1.34015 0.78384,-2.19047 2.14286,-2.19047c8.18859,0 37.25934,0 41.57143,0c1.02793,0 2.57143,1.09594 2.57143,2.7619c0,4.47572 0,13.06561 0,15.57143c0,1.34608 -0.92625,2.80953 -2.28572,2.80953c-8.21159,0 -37.29858,0 -41.85714,0c-1.17065,0 -2.14286,-1.54936 -2.14286,-2.95238z" fill="#e6e6e6" stroke="#cfdfe6" stroke-width="4" stroke-linecap="butt"/><path d="M265.61287,164.16393c0.25324,-0.06022 0.57011,-0.02734 0.88698,0.28952c0.70711,0.70711 0,1.41422 0,1.41422l-1.5071,0.29289c-3.64098,-2.78769 -7.52628,-0.37504 -11.6613,-0.40967c-2.16241,0.6331 -5.32495,1.1462 -7.56845,0.58292c-1.48666,-0.37326 -2.48676,-1.63187 -4.06878,-1.77812c-3.22806,-0.29841 -6.04309,0.66168 -9.13707,1.19126c0,0 -0.98639,0.1644 -1.15079,-0.82199c-0.1644,-0.98639 0.82199,-1.15079 0.82199,-1.15079c3.26281,-0.52631 6.2562,-1.56874 9.66294,-1.20874c1.72735,0.18254 2.76807,1.43362 4.33122,1.82189c2.02912,0.50401 4.87056,-0.06886 6.83154,-0.61709c4.60094,-0.03305 8.4513,-2.19653 12.55883,0.3937z" fill="#1a1a1a" stroke="none" stroke-width="0.5" stroke-linecap="butt"/><path d="M267.38021,168.65058c0.18169,-0.69002 0.96255,-0.69002 0.96255,-0.69002l0.90711,1.7071c-3.68883,3.6158 -8.04713,0.24883 -12.25044,0.0594c-2.01016,1.21337 -5.07583,2.46843 -7.50388,1.52792c-0.6408,-0.24821 -0.7055,-1.29601 -1.33547,-1.57054c-0.73905,-0.32207 -1.61114,0.07612 -2.41732,0.07612c-4.21878,0 -7.37437,1.3904 -11.45858,1.98995c0,0 -0.98995,0.14142 -1.13137,-0.84852c-0.14142,-0.98995 0.84852,-1.13137 0.84852,-1.13137c2.05114,-0.28361 3.89247,-1.17856 5.86691,-1.77164c1.8116,-0.54415 3.9944,-0.23842 5.87451,-0.23842c0.00215,0 2.93914,-0.03298 3.18268,0.07612c0.66647,0.29857 0.768,1.40996 1.46453,1.62945c1.99211,0.62775 4.47262,-0.7827 6.09612,-1.67207c3.16114,-0.08427 8.03954,2.95158 10.89412,0.85652z" fill="#1a1a1a" stroke="none" stroke-width="0.5" stroke-linecap="butt"/><path d="M262.89277,173.71056c0,1 -1,1 -1,1h-0.60001c-7.6131,0 -14.94323,1.8 -22.59999,1.8c0,0 -1,0 -1,-1c0,-1 1,-1 1,-1c7.65523,0 14.98198,-1.8 22.59999,-1.8h0.60001c0,0 1,0 1,1z" fill="#1a1a1a" stroke="none" stroke-width="0.5" stroke-linecap="butt"/></g></g></g></svg>