<svg version="1.1" xmlns="http://www.w3.org/2000/svg" xmlns:xlink="http://www.w3.org/1999/xlink" width="28.53183" height="28.18984" viewBox="0,0,28.53183,28.18984"><g transform="translate(-225.73456,-165.37205)"><g stroke-miterlimit="10"><path d="M236.25789,174.06261l-1.8409,-7.3745l2.26147,1.81044l2.18192,5.47766z" fill="#734500" stroke="#402600" stroke-width="1" stroke-linecap="butt"/><path d="M234.47887,174.13871c1.74816,-0.19977 5.85418,0.0543 6.13551,0.08747c0.12565,0.01481 1.47351,0.88571 1.23305,1.93445c-0.29794,1.29944 -0.85449,3.2605 0.75661,5.02912c2.85238,3.13127 0.97915,4.84019 1.03796,5.74053c0.27475,4.20605 -3.14075,3.98315 -5.04004,4.48619c-0.58494,0.15493 -1.29313,-0.41908 -1.9268,-0.41908c-0.66672,0 -1.2183,0.56517 -1.83049,0.39425c-3.00863,-0.84001 -5.05203,-1.67731 -5.05203,-4.95393c0,-3.27662 2.24217,-3.19341 1.89453,-6.06503c-0.41421,-3.42153 1.04354,-6.03421 2.7917,-6.23398z" fill="#8fb300" stroke="#668000" stroke-width="2" stroke-linecap="butt"/><path d="M237.87082,171.48936c0.29986,-0.44097 1.53009,-2.25009 1.53009,-2.25009c0,0 0.77261,-0.84232 1.18325,-1.06752c0.66079,-0.36238 2.40165,-0.89851 2.40165,-0.89851c0,0 0.01037,1.15466 -0.34746,1.77593c-0.20666,0.35882 -2.79942,2.80356 -2.79942,2.80356c0,0 -1.40197,0.27101 -1.80364,0.27581c-0.21049,0.00252 -0.28934,-0.45557 -0.16449,-0.63918z" fill="#70b32d" stroke="#508020" stroke-width="1.5" stroke-linecap="butt"/><path d="M226.48456,171.54314l21.82353,19.70588" fill="none" stroke="#992630" stroke-width="1.5" stroke-linecap="round"/><path d="M230.8375,174.30785l14.58824,13.17647" fill="none" stroke="#b32d38" stroke-width="1.5" stroke-linecap="round"/><path d="M247.13161,190.13138l-17.88235,-13.29412" fill="none" stroke="#b32d38" stroke-width="1.5" stroke-linecap="round"/><path d="M227.8375,174.71961l18.88235,17.35294" fill="none" stroke="#802028" stroke-width="1.5" stroke-linecap="round"/><text transform="translate(248.05545,187.31189) scale(0.5,0.5)" font-size="40" xml:space="preserve" fill="#1a1a1a" stroke="none" stroke-width="1" stroke-linecap="butt" font-family="Sans Serif" font-weight="normal" text-anchor="start"><tspan x="0" dy="0">:</tspan></text></g></g></svg>