<svg version="1.1" xmlns="http://www.w3.org/2000/svg" xmlns:xlink="http://www.w3.org/1999/xlink" width="226.5667" height="57.58381" viewBox="0,0,226.5667,57.58381"><g transform="translate(-126.71669,-151.04062)"><g stroke-miterlimit="10"><path d="M127.96669,199.33333c0,-9.68135 0,-37.21523 0,-43c0,-2.08079 2.52572,-4.04271 5.90762,-4.04271c18.27715,0 176.59345,0 211.40754,0c4.33181,0 6.75154,1.78013 6.75154,3.70938c0,5.5047 0,32.35602 0,42.66667c0,2.51243 -1.94015,4.04272 -4.64169,4.04272c-16.4706,0 -176.2644,0 -212.25149,0c-4.59675,0 -7.17352,-1.26267 -7.17352,-3.37606z" fill="#005980" stroke="#007db3" stroke-width="2.5"/><text transform="translate(132.90512,193.9254) scale(1.16045,1.16045)" font-size="40" xml:space="preserve" fill="#007db3" stroke="#007db3" stroke-width="2" font-family="&quot;Comic Sans&quot;, Handwriting" font-weight="400" text-anchor="start"><tspan x="0" dy="0">Add Score</tspan></text><text transform="translate(262.89334,166.17027) scale(0.27937,0.27937)" font-size="40" xml:space="preserve" fill="#007db3" stroke-opacity="0" stroke="#000000" stroke-width="0" font-family="&quot;Comic Sans&quot;, Handwriting" font-weight="normal" text-anchor="start"><tspan x="0" dy="0">(a)</tspan></text></g></g></svg>