<svg version="1.1" xmlns="http://www.w3.org/2000/svg" xmlns:xlink="http://www.w3.org/1999/xlink" width="65.40782" height="54.43037" viewBox="0,0,65.40782,54.43037"><g transform="translate(-200.72875,-153.22815)"><g stroke-miterlimit="10"><path d="M214.93492,201.83336c0,-9.68135 0,-37.21523 0,-43c0,-2.08079 0.55954,-4.04271 1.30875,-4.04271c4.04908,0 39.12206,0 46.83468,0c0.95966,0 1.49572,1.78013 1.49572,3.70938c0,5.5047 0,32.35602 0,42.66667c0,2.51243 -0.42982,4.04272 -1.02831,4.04272c-3.64885,0 -39.04916,0 -47.02165,0c-1.01835,0 -1.5892,-1.26267 -1.5892,-3.37606z" fill="#b3b3b3" stroke="#808080" stroke-width="3.125"/><text transform="translate(219.20556,175.17272) scale(0.4184,0.4184)" font-size="40" xml:space="preserve" fill="#808080" stroke="none" stroke-width="1" font-family="&quot;Comic Sans&quot;, Handwriting" font-weight="normal" text-anchor="start"><tspan x="0" dy="0">Alpha</tspan><tspan x="0" dy="46.150000000000006px">    1</tspan></text><text transform="translate(201.06831,204.82889) scale(0.22637,0.22637)" font-size="40" xml:space="preserve" fill="#808080" stroke="none" stroke-width="1" font-family="&quot;Comic Sans&quot;, Handwriting" font-weight="normal" text-anchor="start"><tspan x="0" dy="0">(L)</tspan></text></g></g></svg>