<svg version="1.1" xmlns="http://www.w3.org/2000/svg" xmlns:xlink="http://www.w3.org/1999/xlink" width="25.17779" height="17.28471" viewBox="0,0,25.17779,17.28471"><g transform="translate(-227.4111,-171.35763)"><g fill="#ccbd33" stroke="#998e26" stroke-width="2" stroke-miterlimit="10"><path d="M228.78674,179.0614c0.95015,-1.24449 3.44003,-2.3965 4.37551,-3.38194c0.82948,-0.87377 1.84772,-1.61656 2.90393,-2.17672c1.36875,-0.72591 2.80124,-1.14511 3.96916,-1.14511c1.36417,0 3.11881,0.5719 4.71664,1.53648c0.98558,0.59499 1.91148,1.33937 2.64929,2.19111c0.99182,1.14498 4.18762,2.48395 4.18762,3.91476c0,0.94786 -2.82999,2.03418 -3.31148,2.87173c-0.66728,1.16076 -1.70985,2.0083 -2.88625,2.82108c-1.75459,1.21227 -3.8069,1.94955 -5.35583,1.94955c-1.21968,0 -2.7279,-0.45717 -4.15075,-1.24341c-1.16078,-0.64144 -2.26474,-1.50189 -3.10888,-2.51183c-0.78947,-0.94454 -3.27166,-2.01984 -4.09572,-3.16899c-0.16953,-0.23641 -0.26888,-0.47595 -0.26888,-0.71812c0,0 0.1408,-0.631 0.37564,-0.93859z"/></g></g></svg>