<svg version="1.1" xmlns="http://www.w3.org/2000/svg" xmlns:xlink="http://www.w3.org/1999/xlink" width="58.86114" height="38.36783" viewBox="0,0,58.86114,38.36783"><defs><linearGradient x1="256.63873" y1="179.50001" x2="272.63873" y2="179.50001" gradientUnits="userSpaceOnUse" id="color-1"><stop offset="0" stop-color="#d9d9d9" stop-opacity="0"/><stop offset="1" stop-color="#d9d9d9"/></linearGradient></defs><g transform="translate(-220.89566,-160.81609)"><g stroke-miterlimit="10"><g fill="none" stroke-width="4" stroke-linecap="round"><path d="M272.63873,179.50001h-16" stroke="url(#color-1)"/><path d="M267.38873,170.00001c0,0 6.83323,6.95823 8.375,8.5c0.57627,0.57627 0.73955,1.76045 0.1875,2.3125c-1.5396,1.5396 -8.75,8.75 -8.75,8.75" stroke="#d9d9d9"/></g><path d="M223.27102,180.00002c0,-9.23917 7.48982,-16.72898 16.72898,-16.72898c9.23917,0 16.72899,7.48982 16.72899,16.72898c0,9.23917 -7.48982,16.72898 -16.72899,16.72898c-9.23917,0 -16.72898,-7.48982 -16.72898,-16.72898z" fill="#b2b2b2" stroke="#808080" stroke-width="4" stroke-linecap="butt"/><path d="M220.89566,199.18393v-38.36783h58.86114v38.36783z" fill="none" stroke="none" stroke-width="0" stroke-linecap="butt"/></g></g></svg>