<svg version="1.1" xmlns="http://www.w3.org/2000/svg" xmlns:xlink="http://www.w3.org/1999/xlink" width="85.20283" height="28.19276" viewBox="0,0,85.20283,28.19276"><g transform="translate(-197.3722,-166.22956)"><g stroke-width="2" stroke-miterlimit="10"><path d="M239.90695,192.98488c0,0 -9.84556,-8.50957 -11.71691,-15.24986c-0.58392,-2.10318 -1.00084,-4.1446 -0.61642,-6.00013c0.34842,-1.68175 1.24225,-2.63004 2.18086,-3.52243c0.55553,-0.52819 2.51423,-0.84092 2.97351,-1.17014c0.24493,-0.17557 3.47823,0.50137 4.65837,1.96608c1.06544,1.32234 1.62079,4.18842 2.51014,4.16227c1.36451,-0.04011 2.01889,-2.47704 3.6253,-3.80733c1.32828,-1.09998 4.04044,-1.73247 5.11213,-1.00401c0.67379,0.458 1.44097,0.67873 2.01774,1.25637c0.45286,0.45355 0.72441,1.25498 1.17197,1.70253c1.50692,1.50692 0.40346,4.36894 -0.33651,6.6774c-2.14996,6.70717 -11.58015,14.98926 -11.58015,14.98926z" fill="#b32d38" stroke="#802028"/><path d="M210.09045,192.56552c-2.15694,-1.96065 -9.5295,-8.98117 -11.12263,-14.71939c-0.58392,-2.10318 -1.00084,-4.14459 -0.61642,-6.00013c0.34842,-1.68175 1.24225,-2.63004 2.18085,-3.52243c0.55554,-0.52818 2.51423,-0.84092 2.97351,-1.17014c0.24493,-0.17557 3.47822,0.50137 4.65836,1.96608c1.06543,1.32234 1.62079,4.18841 2.51014,4.16227c1.3645,-0.04011 2.01889,-2.47703 3.6253,-3.80733c1.32829,-1.09997 4.04044,-1.73248 5.11213,-1.00401c0.67379,0.458 1.44097,0.67872 2.01773,1.25636c0.45286,0.45355 0.72442,1.25498 1.17197,1.70253c1.50692,1.50692 0.40346,4.36894 -0.33651,6.67741c-1.78692,5.5746 -8.603,12.23716 -10.85396,14.32827c-0.45731,0.42484 -0.7262,0.66099 -0.7262,0.66099c0,0 -0.2176,-0.18809 -0.59427,-0.53047z" fill="#b32d38" stroke="#802028"/><path d="M268.90695,193.096c0,0 -9.84556,-8.50957 -11.71691,-15.24987c-0.58392,-2.10318 -1.00084,-4.14459 -0.61642,-6.00013c0.34842,-1.68175 1.24225,-2.63004 2.18085,-3.52243c0.55553,-0.52819 2.51423,-0.84092 2.97352,-1.17014c0.24493,-0.17557 3.47823,0.50136 4.65837,1.96607c1.06544,1.32234 1.62079,4.18842 2.51014,4.16227c1.36451,-0.04011 2.01889,-2.47704 3.6253,-3.80733c1.32828,-1.09998 4.04044,-1.73247 5.11213,-1.00401c0.67379,0.458 1.44097,0.67873 2.01774,1.25637c0.45286,0.45355 0.72442,1.25498 1.17197,1.70253c1.50692,1.50692 0.40346,4.36895 -0.33651,6.67741c-2.14996,6.70717 -11.58016,14.98926 -11.58016,14.98926z" fill="#4d4d4d" stroke="#1a1a1a"/></g></g></svg>