<svg version="1.1" xmlns="http://www.w3.org/2000/svg" xmlns:xlink="http://www.w3.org/1999/xlink" width="327.15624" height="123.94781" viewBox="0,0,327.15624,123.94781"><g transform="translate(-76.52357,-118.82012)"><g stroke-linecap="round" stroke-linejoin="round" stroke-miterlimit="10"><text transform="translate(249.41222,186.72181) rotate(5.2778) scale(0.22493,0.22493)" font-size="40" xml:space="preserve" fill="#508020" stroke="#508020" stroke-width="2" font-family="&quot;Comic Sans&quot;, Handwriting" font-weight="400" text-anchor="start"><tspan x="0" dy="0">ALPHA 3</tspan></text><text transform="translate(249.36126,192.3599) scale(0.11314,0.11314)" font-size="40" xml:space="preserve" fill="#508020" stroke="#508020" stroke-width="2" font-family="&quot;Comic Sans&quot;, Handwriting" font-weight="normal" text-anchor="start"><tspan x="0" dy="0">v0.5.0</tspan></text><text transform="translate(86.77421,168.71947) scale(1.16045,1.16045)" font-size="40" xml:space="preserve" fill="#1a1a1a" stroke="#1a1a1a" stroke-width="16" font-family="&quot;Comic Sans&quot;, Handwriting" font-weight="400" text-anchor="start"><tspan x="0" dy="0">J    HNATHAN</tspan></text><text transform="translate(86.77421,168.96947) scale(1.16045,1.16045)" font-size="40" xml:space="preserve" fill="#e6e6e6" stroke="#e6e6e6" stroke-width="7" font-family="&quot;Comic Sans&quot;, Handwriting" font-weight="400" text-anchor="start"><tspan x="0" dy="0">J    HNATHAN</tspan></text><text transform="translate(86.77421,168.71947) scale(1.16045,1.16045)" font-size="40" xml:space="preserve" fill="#808080" stroke="#808080" stroke-width="2" font-family="&quot;Comic Sans&quot;, Handwriting" font-weight="400" text-anchor="start"><tspan x="0" dy="0">J    HNATHAN</tspan></text><text transform="translate(98.08819,219.94575) scale(1.16045,1.16045)" font-size="40" xml:space="preserve" fill="#1a1a1a" stroke="#1a1a1a" stroke-width="16" font-family="&quot;Comic Sans&quot;, Handwriting" font-weight="400" text-anchor="start"><tspan x="0" dy="0">APPLE</tspan></text><text transform="translate(98.08818,220.1019) scale(1.16045,1.16045)" font-size="40" xml:space="preserve" fill="#e6e6e6" stroke="#e6e6e6" stroke-width="7" font-family="&quot;Comic Sans&quot;, Handwriting" font-weight="400" text-anchor="start"><tspan x="0" dy="0">APPLE</tspan></text><text transform="translate(98.08819,220.10191) scale(1.16045,1.16045)" font-size="40" xml:space="preserve" fill="#802028" stroke="#802028" stroke-width="2" font-family="&quot;Comic Sans&quot;, Handwriting" font-weight="400" text-anchor="start"><tspan x="0" dy="0">APPLE</tspan></text><g><g stroke="#1a1a1a" stroke-width="11.5"><path d="M118.86249,143.51856c2.70399,-8.46985 7.95826,-10.70457 15.93092,-9.12789c1.26811,0.25078 3.15066,2.83711 4.49787,3.2672c1.67082,0.53341 4.55748,-0.6495 5.96802,-0.00877c6.87722,3.12392 10.3014,7.57963 7.70073,15.72584c-2.63045,8.23949 -11.11276,19.08589 -19.3618,18.67222c-1.57936,-0.0792 -2.88621,-2.07106 -4.46375,-2.57469c-1.65982,-0.52989 -3.48218,0.43873 -4.8704,-0.47334c-6.82245,-4.48242 -8.00584,-17.32334 -5.40165,-25.48058z" fill="#b32d38"/><path d="M140.89533,134.17639c0.99306,-0.9777 5.06726,-4.98882 5.06726,-4.98882c0,0 2.40911,-1.76586 3.57633,-2.13412c1.87823,-0.59257 6.61341,-1.08076 6.61341,-1.08076c0,0 -0.56112,2.965 -1.79451,4.37534c-1.87615,2.14532 -8.60261,5.76149 -8.60261,5.76149c0,0 -3.73158,-0.01889 -4.7636,-0.211c-0.54082,-0.10067 -0.50979,-1.31503 -0.09631,-1.72211z" fill="#70b32d"/></g><g stroke-width="3.5"><path d="M118.86249,143.51856c2.70399,-8.46985 7.95826,-10.70457 15.93092,-9.12789c1.26811,0.25078 3.15066,2.83711 4.49787,3.2672c1.67082,0.53341 4.55748,-0.6495 5.96802,-0.00877c6.87722,3.12392 10.3014,7.57963 7.70073,15.72584c-2.63045,8.23949 -11.11276,19.08589 -19.3618,18.67222c-1.57936,-0.0792 -2.88621,-2.07106 -4.46375,-2.57469c-1.65982,-0.52989 -3.48218,0.43873 -4.8704,-0.47334c-6.82245,-4.48242 -8.00584,-17.32334 -5.40165,-25.48058z" fill="#b32d38" stroke="#802028"/><path d="M140.89533,134.17639c0.99306,-0.9777 5.06726,-4.98882 5.06726,-4.98882c0,0 2.40911,-1.76586 3.57633,-2.13412c1.87823,-0.59257 6.61341,-1.08076 6.61341,-1.08076c0,0 -0.56112,2.965 -1.79451,4.37534c-1.87615,2.14532 -8.60261,5.76149 -8.60261,5.76149c0,0 -3.73158,-0.01889 -4.7636,-0.211c-0.54082,-0.10067 -0.50979,-1.31503 -0.09631,-1.72211z" fill="#70b32d" stroke="#508020"/></g></g></g></g></svg>