<svg version="1.1" xmlns="http://www.w3.org/2000/svg" xmlns:xlink="http://www.w3.org/1999/xlink" width="613.7069" height="457.11207" viewBox="0,0,613.7069,457.11207"><g transform="translate(67.85345,48.55603)"><g stroke-miterlimit="10"><path d="M-67.85345,408.55605v-457.11207h613.7069v457.11207z" fill="#e6e6e6" stroke="none" stroke-width="0" stroke-linecap="butt"/><path d="M71.5,75.37094c0,0 7.99041,-0.98211 17.61768,-5.6966c7.08507,-3.46957 15.05665,-10.3358 21.38232,-13.3034c9.29564,-4.36091 21.26693,7.62483 36.6567,14.00191c12.93711,5.36077 30.3433,4.99809 30.3433,4.99809" fill="none" stroke="#cfdfe6" stroke-width="4" stroke-linecap="round"/><path d="M327.5,199.37094c0,0 15.21552,-3.63732 27.66444,-8.99809c14.80902,-6.37708 27.8624,-14.36283 36.80726,-10.00191c6.08697,2.96759 13.75774,9.83383 20.57544,13.3034c9.26397,4.71449 16.95286,5.6966 16.95286,5.6966" fill="none" stroke="#cfdfe6" stroke-width="4" stroke-linecap="round"/><path d="M30.5,325.189c0,0 15.02517,2.14026 26.35051,-2.86013c8.33474,-3.67998 6.46156,-6.72003 13.90296,-9.8676c10.93522,-4.62538 23.14288,1.72337 41.24712,8.48718c15.21897,5.68587 40.38313,7.42248 40.38313,7.42248" fill="none" stroke="#cfdfe6" stroke-width="4" stroke-linecap="round"/></g></g></svg>