<svg version="1.1" xmlns="http://www.w3.org/2000/svg" xmlns:xlink="http://www.w3.org/1999/xlink" width="166.47469" height="56.81018" viewBox="0,0,166.47469,56.81018"><g transform="translate(-156.76265,-151.04062)"><g stroke-miterlimit="10"><path d="M158.01266,199.33333c0,-9.68135 0,-37.21523 0,-43c0,-2.08079 1.84835,-4.04271 4.32325,-4.04271c13.37544,0 129.23322,0 154.71058,0c3.17007,0 4.94085,1.78013 4.94085,3.70938c0,5.5047 0,32.35602 0,42.66667c0,2.51243 -1.41983,4.04272 -3.39684,4.04272c-12.05338,0 -128.99241,0 -155.32819,0c-3.36396,0 -5.24966,-1.26267 -5.24966,-3.37606z" fill="#b3b3b3" stroke="#808080" stroke-width="2.5"/><text transform="translate(162.04101,193.9254) scale(1.16045,1.16045)" font-size="40" xml:space="preserve" fill="#808080" stroke="#808080" stroke-width="2" font-family="&quot;Comic Sans&quot;, Handwriting" font-weight="400" text-anchor="start"><tspan x="0" dy="0">Endless</tspan></text><text transform="translate(308.75,162.95384) scale(0.22637,0.22637)" font-size="40" xml:space="preserve" fill="#808080" stroke="none" stroke-width="1" font-family="&quot;Comic Sans&quot;, Handwriting" font-weight="normal" text-anchor="start"><tspan x="0" dy="0">(e)</tspan></text></g></g></svg>