<svg version="1.1" xmlns="http://www.w3.org/2000/svg" xmlns:xlink="http://www.w3.org/1999/xlink" width="613.7069" height="457.11207" viewBox="0,0,613.7069,457.11207"><g transform="translate(66.85345,48.55603)"><g stroke-miterlimit="10"><path d="M-66.85345,408.55605v-457.11207h613.7069v457.11207z" fill="#b4bf30" stroke="none" stroke-width="0" stroke-linecap="butt"/><g fill="none" stroke="#838c23" stroke-width="2.5" stroke-linecap="round"><path d="M118.16667,342.43873c0,0 -0.06737,1.79571 -0.47337,2.62462c-0.60375,1.23266 -2.79753,4.05346 -2.79753,4.05346c0,0 -1.23275,-5.94859 -1.09772,-7.99651c0.06276,-0.95189 1.29641,-2.70791 2.76714,-2.55775"/><path d="M110.12572,342.16615c0,0 1.64036,0.93337 2.14589,1.9257c0.67266,1.32042 2.35159,5.29752 2.35159,5.29752"/></g><g fill="none" stroke="#838c23" stroke-width="2.5" stroke-linecap="round"><path d="M364.72719,142.06255c1.47073,-0.15016 2.70438,1.60586 2.76714,2.55775c0.13503,2.04792 -1.09772,7.99651 -1.09772,7.99651c0,0 -2.19378,-2.8208 -2.79753,-4.05346c-0.40599,-0.82891 -0.47336,-2.62462 -0.47336,-2.62462"/><path d="M366.66919,152.88938c0,0 1.67893,-3.97711 2.35159,-5.29753c0.50553,-0.99233 2.14589,-1.9257 2.14589,-1.9257"/></g><g fill="none" stroke="#838c23" stroke-width="2.5" stroke-linecap="round"><path d="M40.16666,42.93873c0,0 -0.06737,1.7957 -0.47337,2.62462c-0.60375,1.23266 -2.79753,4.05346 -2.79753,4.05346c0,0 -1.23275,-5.94859 -1.09772,-7.99651c0.06276,-0.95189 1.29641,-2.70791 2.76714,-2.55775"/><path d="M32.12572,42.66616c0,0 1.64037,0.93337 2.14589,1.9257c0.67266,1.32041 2.35159,5.29753 2.35159,5.29753"/></g><g fill="none" stroke="#838c23" stroke-width="2.5" stroke-linecap="round"><path d="M306.7272,287.06255c1.47073,-0.15016 2.70438,1.60586 2.76714,2.55775c0.13503,2.04792 -1.09772,7.99651 -1.09772,7.99651c0,0 -2.19378,-2.8208 -2.79753,-4.05346c-0.406,-0.82891 -0.47337,-2.62462 -0.47337,-2.62462"/><path d="M308.66918,297.88937c0,0 1.67892,-3.97711 2.35159,-5.29752c0.50553,-0.99233 2.14589,-1.9257 2.14589,-1.9257"/></g><g stroke-width="2.5"><path d="M245.45938,122.95713c0,0 0.58524,-5.94757 2.108,-7.25471c0.50164,-0.43061 2.16495,0.59361 2.68905,4.15575c0.64125,4.35834 0.09851,11.47518 0.09851,11.47518" fill="none" stroke="#838c23" stroke-linecap="round"/><path d="M245.18045,128.80785c-0.53493,0 -0.96857,-0.64854 -0.96857,-1.44855c0,-0.80001 0.99264,-0.6568 0.99264,-0.6568c0,0 0.94451,-0.07688 0.94451,0.6568c0,0.80001 -0.43364,1.44855 -0.96857,1.44855z" fill="#bf8f8f" stroke="#8c6969" stroke-linecap="butt"/><path d="M246.19068,122.60046c0,0.73368 -0.94451,0.65679 -0.94451,0.65679c0,0 -0.99263,0.14322 -0.99263,-0.65679c0,-0.80001 0.43364,-1.44855 0.96857,-1.44855c0.53493,0 0.96857,0.64854 0.96857,1.44855z" fill="#bf8f8f" stroke="#8c6969" stroke-linecap="butt"/><path d="M241.37331,124.95905c0,-0.53493 0.64854,-0.96857 1.44855,-0.96857c0.80001,0 0.6568,0.99263 0.6568,0.99263c0,0 0.07688,0.94451 -0.6568,0.94451c-0.80001,0 -1.44855,-0.43364 -1.44855,-0.96857z" fill="#bf8f8f" stroke="#8c6969" stroke-linecap="butt"/><path d="M247.5807,125.96929c-0.73368,0 -0.65679,-0.94451 -0.65679,-0.94451c0,0 -0.14322,-0.99264 0.65679,-0.99264c0.80001,0 1.44855,0.43364 1.44855,0.96857c0,0.53493 -0.64854,0.96857 -1.44855,0.96857z" fill="#bf8f8f" stroke="#8c6969" stroke-linecap="butt"/><path d="M242.47977,127.67194c-0.37825,-0.37825 -0.2263,-1.14347 0.3394,-1.70916c0.56569,-0.56569 1.16633,0.23747 1.16633,0.23747c0,0 0.72223,0.6135 0.20344,1.13229c-0.56569,0.56569 -1.33092,0.71764 -1.70917,0.33939z" fill="#bf8f8f" stroke="#8c6969" stroke-linecap="butt"/><path d="M247.5834,123.99699c-0.51879,0.51879 -1.13229,-0.20344 -1.13229,-0.20344c0,0 -0.80317,-0.60063 -0.23747,-1.16632c0.56569,-0.56569 1.33091,-0.71765 1.70916,-0.3394c0.37825,0.37825 0.2263,1.14347 -0.33939,1.70916z" fill="#bf8f8f" stroke="#8c6969" stroke-linecap="butt"/><path d="M242.50923,122.25837c0.37825,-0.37825 1.14347,-0.2263 1.70916,0.3394c0.56569,0.56569 -0.23747,1.16633 -0.23747,1.16633c0,0 -0.6135,0.72223 -1.13229,0.20344c-0.56569,-0.56569 -0.71764,-1.33091 -0.33939,-1.70916z" fill="#bf8f8f" stroke="#8c6969" stroke-linecap="butt"/><path d="M246.18418,127.362c-0.51879,-0.51879 0.20344,-1.13229 0.20344,-1.13229c0,0 0.60063,-0.80317 1.16632,-0.23747c0.56569,0.56569 0.71765,1.33091 0.3394,1.70916c-0.37825,0.37825 -1.14347,0.2263 -1.70916,-0.3394z" fill="#bf8f8f" stroke="#8c6969" stroke-linecap="butt"/><path d="M245.18045,126.76657c-0.92605,0 -1.67678,-0.75072 -1.67678,-1.67677c0,-0.92605 0.75072,-1.67677 1.67678,-1.67677c0.92605,0 1.67677,0.75072 1.67677,1.67677c0,0.92605 -0.75072,1.67677 -1.67677,1.67677z" fill="#bfa830" stroke="#8c7b23" stroke-linecap="butt"/></g><g stroke-width="2.5"><path d="M61.5878,340.33335c0,0 -0.54275,-7.11684 0.0985,-11.47518c0.5241,-3.56214 2.18741,-4.58636 2.68905,-4.15575c1.52276,1.30714 2.108,7.25471 2.108,7.25471" fill="none" stroke="#838c23" stroke-linecap="round"/><path d="M65.79371,336.35931c0,-0.73368 0.94451,-0.65679 0.94451,-0.65679c0,0 0.99263,-0.14321 0.99263,0.65679c0,0.80001 -0.43364,1.44855 -0.96857,1.44855c-0.53493,0 -0.96857,-0.64854 -0.96857,-1.44855z" fill="#bf8f8f" stroke="#8c6969" stroke-linecap="butt"/><path d="M66.72063,330.15191c0.53493,0 0.96857,0.64854 0.96857,1.44855c0,0.80001 -0.99264,0.65679 -0.99264,0.65679c0,0 -0.9445,0.07688 -0.9445,-0.65679c0,-0.80001 0.43364,-1.44855 0.96857,-1.44855z" fill="#bf8f8f" stroke="#8c6969" stroke-linecap="butt"/><path d="M69.12088,334.92762c-0.73368,0 -0.6568,-0.9445 -0.6568,-0.9445c0,0 -0.14321,-0.99264 0.6568,-0.99264c0.80001,0 1.44855,0.43364 1.44855,0.96857c0,0.53493 -0.64854,0.96857 -1.44855,0.96857z" fill="#bf8f8f" stroke="#8c6969" stroke-linecap="butt"/><path d="M62.91349,334.00072c0,-0.53493 0.64854,-0.96857 1.44855,-0.96857c0.80001,0 0.6568,0.99264 0.6568,0.99264c0,0 0.07688,0.9445 -0.6568,0.9445c-0.80001,0 -1.44855,-0.43364 -1.44855,-0.96857z" fill="#bf8f8f" stroke="#8c6969" stroke-linecap="butt"/><path d="M67.75381,336.33255c-0.51879,-0.51879 0.20344,-1.13229 0.20344,-1.13229c0,0 0.60063,-0.80317 1.16633,-0.23748c0.5657,0.5657 0.71765,1.33092 0.3394,1.70916c-0.37825,0.37825 -1.14347,0.2263 -1.70917,-0.33939z" fill="#bf8f8f" stroke="#8c6969" stroke-linecap="butt"/><path d="M64.01995,331.28783c0.37825,-0.37825 1.14346,-0.2263 1.70916,0.33939c0.5657,0.5657 -0.23748,1.16633 -0.23748,1.16633c0,0 -0.61351,0.72223 -1.13229,0.20344c-0.5657,-0.5657 -0.71764,-1.33091 -0.33939,-1.70916z" fill="#bf8f8f" stroke="#8c6969" stroke-linecap="butt"/><path d="M69.09412,332.96753c-0.51879,0.51879 -1.13229,-0.20344 -1.13229,-0.20344c0,0 -0.80317,-0.60063 -0.23747,-1.16632c0.5657,-0.5657 1.33091,-0.71765 1.70916,-0.3394c0.37825,0.37825 0.2263,1.14347 -0.3394,1.70916z" fill="#bf8f8f" stroke="#8c6969" stroke-linecap="butt"/><path d="M64.0494,336.7014c-0.37825,-0.37825 -0.2263,-1.14346 0.33939,-1.70916c0.5657,-0.5657 1.16632,0.23747 1.16632,0.23747c0,0 0.72223,0.6135 0.20344,1.13229c-0.5657,0.5657 -1.33091,0.71765 -1.70916,0.3394z" fill="#bf8f8f" stroke="#8c6969" stroke-linecap="butt"/><path d="M65.08551,334.08979c0,-0.92606 0.75072,-1.67678 1.67677,-1.67678c0.92605,0 1.67678,0.75072 1.67678,1.67678c0,0.92606 -0.75072,1.67677 -1.67678,1.67677c-0.92605,0 -1.67677,-0.75071 -1.67677,-1.67677z" fill="#bfa830" stroke="#8c7b23" stroke-linecap="butt"/></g></g></g></svg>