<svg version="1.1" xmlns="http://www.w3.org/2000/svg" xmlns:xlink="http://www.w3.org/1999/xlink" width="131.50002" height="55.7016" viewBox="0,0,131.50002,55.7016"><g transform="translate(-174.25,-149.1492)"><g stroke-miterlimit="10"><path d="M175.5,199.33333c0,-9.68135 0,-37.21523 0,-43c0,-2.08079 1.45411,-4.04271 3.40114,-4.04271c10.52255,0 101.66866,0 121.71187,0c2.49392,0 3.88701,1.78013 3.88701,3.70938c0,5.5047 0,32.35602 0,42.66667c0,2.51243 -1.11698,4.04272 -2.67232,4.04272c-9.48248,0 -101.47921,0 -122.19775,0c-2.64645,0 -4.12994,-1.26267 -4.12994,-3.37606z" fill="#595959" stroke="#8c8c8c" stroke-width="2.5"/><text transform="translate(181.04916,190.9254) scale(1.16045,1.16045)" font-size="40" xml:space="preserve" fill="#8c8c8c" stroke="#8c8c8c" stroke-width="2" font-family="&quot;Comic Sans&quot;, Handwriting" font-weight="400" text-anchor="start"><tspan x="0" dy="0">Retry</tspan></text><text transform="translate(292.5,162.32884) scale(0.22637,0.22637)" font-size="40" xml:space="preserve" fill="#8c8c8c" stroke="none" stroke-width="1" font-family="&quot;Comic Sans&quot;, Handwriting" font-weight="normal" text-anchor="start"><tspan x="0" dy="0">(r)</tspan></text></g></g></svg>