<svg version="1.1" xmlns="http://www.w3.org/2000/svg" xmlns:xlink="http://www.w3.org/1999/xlink" width="141.90002" height="56.81018" viewBox="0,0,141.90002,56.81018"><g transform="translate(-169.05,-151.04062)"><g stroke-miterlimit="10"><path d="M170.3,199.33333c0,-9.68135 0,-37.21523 0,-43c0,-2.08079 1.57134,-4.04271 3.67534,-4.04271c11.37088,0 109.8652,0 131.5243,0c2.69498,0 4.20038,1.78013 4.20038,3.70938c0,5.5047 0,32.35602 0,42.66667c0,2.51243 -1.20703,4.04272 -2.88776,4.04272c-10.24696,0 -109.66048,0 -132.04935,0c-2.85981,0 -4.4629,-1.26267 -4.4629,-3.37606z" fill="#802028" stroke="#b32d38" stroke-width="2.5"/><text transform="translate(174.71513,193.9254) scale(1.16045,1.16045)" font-size="40" xml:space="preserve" fill="#b32d38" stroke="#b32d38" stroke-width="2" font-family="&quot;Comic Sans&quot;, Handwriting" font-weight="400" text-anchor="start"><tspan x="0" dy="0">Delete</tspan></text><text transform="translate(294.59333,164.83693) scale(0.27937,0.27937)" font-size="40" xml:space="preserve" fill="#b32d38" stroke="none" stroke-width="1" font-family="&quot;Comic Sans&quot;, Handwriting" font-weight="normal" text-anchor="start"><tspan x="0" dy="0">(d)</tspan></text></g></g></svg>