<svg version="1.1" xmlns="http://www.w3.org/2000/svg" xmlns:xlink="http://www.w3.org/1999/xlink" width="21.5103" height="15.57663" viewBox="0,0,21.5103,15.57663"><g transform="translate(-231.63647,-172.21172)"><g stroke-miterlimit="10"><path d="M241.32111,173.21174c3.40219,0 4.82828,1.65527 5.18136,4.74503c0.05616,0.49145 -0.66755,1.47868 -0.66755,2.01983c0,0.67114 0.76714,1.58575 0.69773,2.1745c-0.33842,2.8705 -1.56417,4.63725 -4.83636,4.63725c-3.30966,0 -8.25063,-1.8298 -9.05982,-4.88496c-0.15493,-0.58494 0.41908,-1.29313 0.41908,-1.9268c0,-0.66672 -0.56517,-1.2183 -0.39425,-1.83049c0.84001,-3.00863 5.38319,-4.93438 8.65981,-4.93438z" fill="#ccbd33" stroke="#998e26" stroke-width="2"/><path d="M247.29069,180.15619c0.47197,0.24822 2.40828,1.26659 2.40828,1.26659c0,0 0.92407,0.67269 1.19415,1.05532c0.43459,0.61571 1.16361,2.28501 1.16361,2.28501c0,0 -1.14613,0.14051 -1.80378,-0.14497c-1.00037,-0.43425 -3.10137,-2.46541 -3.10137,-2.46541c0,0 -0.42738,-1.36247 -0.47745,-1.76103c-0.02624,-0.20886 0.42004,-0.33887 0.61655,-0.23552z" fill="#70b32d" stroke="#508020" stroke-width="1.5"/></g></g></svg>