<svg version="1.1" xmlns="http://www.w3.org/2000/svg" xmlns:xlink="http://www.w3.org/1999/xlink" width="710" height="653.84597" viewBox="0,0,710,653.84597"><g transform="translate(132.5,141.92299)"><g stroke-miterlimit="10"><path d="M-65.6541,273.57703v-310h625v310z" fill="#999999" stroke="none" stroke-width="5.5"/><path d="M-45.5,404.57704l6.5,-164.5c0,0 56.59892,-14.92876 128.43914,-24.22058c40.29561,-5.21183 93.26829,-7.27942 124.56086,-7.27942c42.14369,0 107.12042,2.55709 159.04739,8.32322c55.98628,6.21689 97.45261,15.67678 97.45261,15.67678v129z" fill="#4d4d4d" stroke="none" stroke-width="0"/><path d="M-37.9041,240.07703v-184c0,0 9.3955,-12.79001 28.03501,-19.99608c18.2152,-7.04203 45.5059,-8.50391 60.46499,-8.50391c12.65352,0 36.78253,1.09411 53.95058,6.59333c25.59243,8.19769 43.04942,21.90668 43.04942,21.90668l-3.5,157.5z" fill="#803d20" stroke="#4d2413" stroke-width="4.5"/><path d="M33.0959,143.32701c0,-3.72792 2.57437,-6.75 5.75,-6.75c3.17564,0 5.75,3.02208 5.75,6.75c0,3.72792 -2.57437,6.75 -5.75,6.75c-3.17563,0 -5.75,-3.02208 -5.75,-6.75z" fill="#e6cf00" stroke="#b3a100" stroke-width="4.5"/><path d="M58.0959,142.32701c0,-3.72792 2.6863,-6.75 6,-6.75c3.3137,0 6,3.02208 6,6.75c0,3.72792 -2.6863,6.75 -6,6.75c-3.3137,0 -6,-3.02208 -6,-6.75z" fill="#e6cf00" stroke="#b3a100" stroke-width="4.5"/><g stroke-width="4.5"><path d="M13.99964,129.49324c-2.20325,-8.3809 2.80472,-16.96104 11.18561,-19.1643c8.3809,-2.20325 16.96106,2.80472 19.16431,11.18562c2.20325,8.3809 -2.80473,16.96104 -11.18562,19.1643c-8.3809,2.20325 -16.96104,-2.80472 -19.16429,-11.18562z" fill="#b2b2b2" stroke="#808080"/><path d="M17.1667,129.43695l-1.65956,-6.70364l32.06349,-7.89175l1.62353,6.1757c0,0 0.17048,1.35051 -0.22636,2.88891c-0.36272,1.40611 -1.23486,2.97851 -2.41992,3.62968c-1.51843,0.83435 -4.58517,0.17843 -7.05506,-1.23258c-2.38651,-1.36336 -4.16555,-3.47779 -6.28087,-3.03753c-1.8923,0.39384 -2.26801,3.44325 -3.57343,5.5288c-1.5889,2.53843 -3.99424,4.17175 -5.09567,4.4613c-1.33749,0.35161 -3.32421,-0.14573 -4.67446,-1.02669c-1.74408,-1.13792 -2.70166,-2.7922 -2.70166,-2.7922z" fill="#1a1a1a" stroke="none"/><path d="M9.88576,198.02617c0.81378,-11.56224 2.71177,-38.52915 3.0671,-43.57768c0.11263,-1.60029 1.52684,-3.06119 3.8398,-3.16183c3.69665,-0.16085 15.63639,-0.6758 22.30944,-0.96347c2.76162,-0.11905 4.89705,1.65533 5.19493,3.65804c0.83349,5.60375 4.83408,32.50061 6.44187,43.31013c0.41545,2.79311 -1.57325,4.58991 -4.90742,4.70869c-5.61893,0.20017 -24.987,0.8923 -32.67602,1.16622c-2.24471,0.07996 -3.49772,-1.90054 -3.26971,-5.14009z" fill="#b2b2b2" stroke="#808080"/><path d="M65.62181,190.75415c2.01218,-5.02034 7.71315,-7.45894 12.73349,-5.44676c5.02034,2.01218 7.45894,7.71315 5.44676,12.73349c-2.01218,5.02034 -7.71315,7.45894 -12.73349,5.44676c-5.02034,-2.01218 -7.45894,-7.71315 -5.44676,-12.73349z" fill="#b2b2b2" stroke="#808080"/><path d="M76.76081,188.9328c2.43391,-2.52452 5.14006,-2.50219 8.42311,-0.71c0.60442,0.32994 1.14814,1.94494 1.76413,2.37864c0.76394,0.53788 2.41985,0.39767 3.03438,0.94853c2.99621,2.68576 4.02489,5.49696 1.40241,9.22163c-2.65251,3.76732 -8.69524,7.92504 -12.82139,6.39759c-0.78999,-0.29244 -1.13608,-1.51339 -1.85737,-2.02125c-0.75891,-0.53434 -1.83972,-0.33308 -2.39958,-1.01827c-2.4431,-2.99005 -1.5744,-8.61927 0.4894,-12.45447c0.26047,-0.48403 0.53997,-0.93948 0.83425,-1.35745c0,0 0.74742,-0.98744 1.13066,-1.38494z" fill="#b32d38" stroke="#802028"/><path d="M91.11255,187.83981c0.72738,-0.14842 3.71154,-0.75732 3.71154,-0.75732c0,0 1.58866,-0.08939 2.21691,0.08495c1.01094,0.28055 3.26766,1.43707 3.26766,1.43707c0,0 -1.11134,1.16145 -2.07165,1.43335c-1.46075,0.41359 -5.51493,0.07617 -5.51493,0.07617c0,0 -1.66126,-1.09168 -2.06645,-1.47707c-0.21234,-0.20196 0.15404,-0.73535 0.45689,-0.79715z" fill="#70b32d" stroke="#508020"/><path d="M-18.67804,198.60313c0.50741,-5.38472 5.28391,-9.33856 10.66863,-8.83115c5.38472,0.50741 9.33856,5.2839 8.83116,10.66862c-0.5074,5.38472 -5.28391,9.33857 -10.66863,8.83116c-5.38472,-0.50741 -9.33856,-5.28391 -8.83116,-10.66863z" fill="#b2b2b2" stroke="#808080"/><path d="M39.29254,241.19167c-0.2062,-5.40464 4.00798,-9.95312 9.41262,-10.15931c5.40464,-0.20619 9.95312,4.00799 10.15931,9.41262c0.2062,5.40464 -3.99132,4.81557 -9.39596,5.02176c-5.40464,0.20619 -9.96979,1.12956 -10.17597,-4.27508z" fill="#b2b2b2" stroke="#808080"/><path d="M3.45691,244.6653c-0.36168,-5.39646 3.71982,-10.06436 9.11629,-10.42604c5.39646,-0.36168 10.06436,3.71982 10.42604,9.11629c0.36168,5.39646 -3.85104,4.92847 -9.24751,5.29014c-5.39647,0.36168 -9.93314,1.41607 -10.29481,-3.98039z" fill="#b2b2b2" stroke="#808080"/></g><path d="M99.5959,114.07703c0,-5.00234 1.31337,2.21817 3.68965,5.80938c1.14188,1.7257 3.85892,3.69062 4.05229,3.69062c1.19315,0 2.84143,-0.59831 3.85851,-2.03315c2.74918,-3.87838 4.39955,-13.71553 4.39955,-7.46685c0,8.56042 -3.58172,15.5 -8,15.5c-4.41828,0 -8,-6.93958 -8,-15.5z" fill="#b2b2b2" stroke="#808080" stroke-width="4.5"/><path d="M548.01722,462.23267c-38.35057,47.11642 -194.10882,85.69755 -307.18822,-6.34383c-25.76027,-20.96765 -91.28001,-41.44553 -141.52236,-82.5794c-51.14594,-41.87364 -87.00441,-104.46338 -111.16329,-131.98923c-56.28534,-64.1297 -12.34326,-168.94235 8.37714,-194.39884c16.14793,-19.83888 41.80442,-44.83781 73.7567,-49.28455c32.37473,-4.50552 71.21281,11.95511 113.17235,55.72564c14.98005,15.6266 75.03592,144.88381 92.25918,158.90274c113.0794,92.04138 310.65908,202.85105 272.30851,249.96747z" fill-opacity="0.4" fill="#000000" stroke="none" stroke-width="NaN"/><g stroke-width="5.5"><path d="M297.17417,14.65305c47.51864,-5.43017 159.12885,1.47599 166.77599,2.37762c3.41543,0.40257 40.05308,24.07545 33.51688,52.58239c-8.09863,35.3215 -23.22682,88.62721 20.56624,136.70199c77.53365,85.11446 26.61534,131.56648 28.21392,156.03961c7.46828,114.32923 -85.37215,108.27034 -136.99882,121.94402c-15.89989,4.21132 -35.14998,-11.39147 -52.37445,-11.39147c-18.12284,0 -33.11594,15.3625 -49.75654,10.71654c-81.78085,-22.83323 -137.32474,-45.59279 -137.32474,-134.65817c0,-89.06538 60.94687,-86.80356 51.49729,-164.86019c-11.25909,-93.00434 28.3656,-164.02244 75.88424,-169.45261z" fill="#8fb300" stroke="#668000"/><path d="M243.8459,17.82703c0,-25.03676 0,-113 0,-113l53,91l72.59824,-90.29645l76.41332,93.6198l64.98844,-94.32335c0,0 0,87.96324 0,113c0,12.46287 -9.45947,23.67491 -23,28c-18.78417,6 -31.89327,8.91857 -40.43906,10.09048c-22.81381,3.12853 -48.55529,7.90952 -73.56094,7.90952c-21.24847,0 -44.41029,-5.27161 -61.75041,-7.75024c-20.8175,-2.97569 -27.5681,-4.24976 -45.24959,-10.24976c-15.91448,-5.40039 -23,-15.53713 -23,-28z" fill="#e6cf00" stroke="#b3a100"/></g><path d="M-132.5,473.07702v-615h710v615z" fill-opacity="0.50196" fill="#000000" stroke="none" stroke-width="0"/></g></g></svg>