<svg version="1.1" xmlns="http://www.w3.org/2000/svg" xmlns:xlink="http://www.w3.org/1999/xlink" width="67.05112" height="54.43036" viewBox="0,0,67.05112,54.43036"><g transform="translate(-199.08544,-153.22811)"><g stroke-miterlimit="10"><path d="M214.93491,201.83332c0,-9.68135 0,-37.21523 0,-43c0,-2.08079 0.55954,-4.04271 1.30875,-4.04271c4.04908,0 39.12206,0 46.83468,0c0.95966,0 1.49572,1.78013 1.49572,3.70938c0,5.5047 0,32.35602 0,42.66667c0,2.51243 -0.42982,4.04272 -1.02831,4.04272c-3.64885,0 -39.04916,0 -47.02165,0c-1.01835,0 -1.5892,-1.26267 -1.5892,-3.37606z" fill="#b3b3b3" stroke="#808080" stroke-width="3.125" stroke-linecap="butt"/><path d="M224.91082,186.22767c-3.42869,-9.52008 -2.59221,-18.87425 6.92788,-22.30294c9.52008,-3.42869 15.31181,2.36822 18.7405,11.88831c3.42869,9.52008 3.19596,19.15827 -6.32412,22.58696c-9.52008,3.42869 -15.91557,-2.65224 -19.34426,-12.17233z" fill="#b3b3b3" stroke="#808080" stroke-width="3.125" stroke-linecap="butt"/><path d="M231.81801,164.09935l5.70194,15.83199" fill="none" stroke="#808080" stroke-width="3.125" stroke-linecap="round"/><text transform="translate(199.425,204.82885) scale(0.22637,0.22637)" font-size="40" xml:space="preserve" fill="#808080" stroke="none" stroke-width="1" stroke-linecap="butt" font-family="&quot;Comic Sans&quot;, Handwriting" font-weight="normal" text-anchor="start"><tspan x="0" dy="0">(m)</tspan></text><path d="M262.01283,170.18365c0.22007,-0.32255 0.60141,-0.60202 1.26222,-0.60202c1.5625,0 1.5625,1.5625 1.5625,1.5625l-0.947,1.66324c-5.39274,2.26679 -12.21485,-0.02866 -14.74982,-5.54888c-1.22971,-2.67787 -0.77976,-8.37231 -5.05617,-8.1802c-2.1901,0.31875 -4.10442,1.26254 -6.2521,1.57834c-3.07983,0.45287 -5.64158,-0.73918 -8.58228,-1.13197c-0.4291,-0.05732 -2.50501,0.34087 -3.64694,0.54795c0.43114,0.07474 0.91937,0.1957 1.18224,0.28928c1.6037,0.57093 2.76757,1.28896 4.46609,1.51494c0,0 1.5468,0.22097 1.32583,1.76777c-0.22097,1.5468 -1.76777,1.32583 -1.76777,1.32583c-3.46515,-0.52139 -11.84776,-2.6233 -7.37921,-7.27616c0.6388,-0.66514 1.58697,-0.9841 2.47265,-1.2411c2.92553,-0.84891 5.80402,0.90565 8.6444,1.0975c3.27146,0.22097 6.10144,-1.13786 9.31556,-1.58951c4.13785,0.09533 6.47436,2.94988 7.52279,6.82674c0.3473,1.28424 0.05213,1.99967 0.59131,3.15894c1.73261,3.7252 6.29119,5.48023 10.0357,4.23682z" fill="#808080" stroke="none" stroke-width="0.5" stroke-linecap="butt"/></g></g></svg>