<svg version="1.1" xmlns="http://www.w3.org/2000/svg" xmlns:xlink="http://www.w3.org/1999/xlink" width="188.56669" height="56.81018" viewBox="0,0,188.56669,56.81018"><g transform="translate(-145.71667,-151.04062)"><g stroke-miterlimit="10"><path d="M146.96668,199.33333c0,-9.68135 0,-37.21523 0,-43c0,-2.08079 2.09737,-4.04271 4.90573,-4.04271c15.17749,0 146.64455,0 175.55443,0c3.59717,0 5.60653,1.78013 5.60653,3.70938c0,5.5047 0,32.35602 0,42.66667c0,2.51243 -1.61111,4.04272 -3.85449,4.04272c-13.67731,0 -146.3713,0 -176.25525,0c-3.81718,0 -5.95694,-1.26267 -5.95694,-3.37606z" fill="#595959" stroke="#8c8c8c" stroke-width="2.5"/><text transform="translate(151.03995,193.9254) scale(1.16045,1.16045)" font-size="40" xml:space="preserve" fill="#8c8c8c" stroke="#8c8c8c" stroke-width="2" font-family="&quot;Comic Sans&quot;, Handwriting" font-weight="400" text-anchor="start"><tspan x="0" dy="0">Personal</tspan></text><text transform="translate(163.39334,196.5036) scale(0.27937,0.27937)" font-size="40" xml:space="preserve" fill="#8c8c8c" stroke="none" stroke-width="1" font-family="&quot;Comic Sans&quot;, Handwriting" font-weight="normal" text-anchor="start"><tspan x="0" dy="0">(t)</tspan></text></g></g></svg>