<svg version="1.1" xmlns="http://www.w3.org/2000/svg" xmlns:xlink="http://www.w3.org/1999/xlink" width="48.76841" height="35.37602" viewBox="0,0,48.76841,35.37602"><g transform="translate(-215.74082,-148.06491)"><g fill="none" stroke="#b32d38" stroke-width="4" stroke-miterlimit="10"><path d="M217.74083,178.38232c0,-6.58249 0,-21.78693 0,-25.375c0,-1.48417 1.74166,-2.94241 3.58893,-2.94241c5.0293,0 28.32634,0 37.375,0c2.20944,0 3.80448,1.60006 3.80448,3.19241c0,3.79393 0,18.12577 0,24.25c0,1.51309 -2.52943,3.93361 -4.30448,3.93361c-5.15819,0 -29.65375,0 -37.625,0c-1.55246,0 -2.83893,-1.17708 -2.83893,-3.05861z" stroke-linecap="butt"/><path d="M225.03926,165.41516h-6.16473" stroke-linecap="round"/><path d="M262.02768,165.41516h-6.16473" stroke-linecap="round"/><path d="M240.30073,152.40904v6.16474" stroke-linecap="round"/><path d="M240.30073,175.2637v6.16474" stroke-linecap="round"/></g></g></svg>