<svg version="1.1" xmlns="http://www.w3.org/2000/svg" xmlns:xlink="http://www.w3.org/1999/xlink" width="47.94685" height="29.56794" viewBox="0,0,47.94685,29.56794"><g transform="translate(-216.0197,-154.96603)"><g fill="none" stroke="#2ee600" stroke-width="4" stroke-miterlimit="10"><path d="M218.03495,181.2768c0,-4.6167 0,-20.4998 0,-23.05773c0,-0.68081 0.49289,-1.25304 1.15334,-1.25304c3.61191,0 35.23188,0 41.64613,0c0.72874,0 1.13213,0.46996 1.13213,1.04989c0,2.39417 0,18.59193 0,23.26088c0,0.79622 -0.43571,1.25717 -1.03056,1.25717c-3.52324,0 -36.7315,0 -42.15401,0c-0.48437,0 -0.74703,-0.46109 -0.74703,-1.25717z" stroke-linecap="butt"/><path d="M218.0197,169.1956h5.6244" stroke-linecap="round"/><path d="M261.63743,169.42516h-5.6244" stroke-linecap="round"/><path d="M239.88596,163.85816v-5.6244" stroke-linecap="round"/><path d="M239.88596,176.48434v5.6244" stroke-linecap="round"/></g></g></svg>