<svg version="1.1" xmlns="http://www.w3.org/2000/svg" xmlns:xlink="http://www.w3.org/1999/xlink" width="66.86114" height="66.84442" viewBox="0,0,66.86114,66.84442"><g transform="translate(-206.56943,-146.57779)"><g stroke-miterlimit="10"><path d="M223.27101,180c0,-9.23917 7.48982,-16.72898 16.72898,-16.72898c9.23917,0 16.72899,7.48982 16.72899,16.72898c0,9.23917 -7.48982,16.72898 -16.72899,16.72898c-9.23917,0 -16.72898,-7.48982 -16.72898,-16.72898z" fill="#cca000" stroke="#997500" stroke-width="4"/><path d="M243.99752,196.36566l-3.76585,-5.30604l-15.01067,0.146l7.86426,-5.20912l-9.52476,-1.11902l4.90663,-4.46873l-3.30191,-3.40139l9.58204,-3.05435l-2.22338,-5.54052l4.37095,1.7178l2.06953,-5.67224l15.71398,4.30072l-6.89721,5.59179l8.23801,3.86258l-5.00473,2.58844l2.5116,5.88979l-6.40978,3.26887z" fill="#24b300" stroke="#198000" stroke-width="4"/><path d="M206.56943,213.42221v-66.84442h66.86114v66.84442z" fill="none" stroke="none" stroke-width="0"/></g></g></svg>