<svg version="1.1" xmlns="http://www.w3.org/2000/svg" xmlns:xlink="http://www.w3.org/1999/xlink" width="140.56669" height="56.47685" viewBox="0,0,140.56669,56.47685"><g transform="translate(-169.71669,-151.04062)"><g stroke-miterlimit="10"><path d="M170.96669,199.33333c0,-9.68135 0,-37.21523 0,-43c0,-2.08079 1.55631,-4.04271 3.64019,-4.04271c11.26212,0 108.81436,0 130.2663,0c2.6692,0 4.1602,1.78013 4.1602,3.70938c0,5.5047 0,32.35602 0,42.66667c0,2.51243 -1.19549,4.04272 -2.86014,4.04272c-10.14895,0 -108.6116,0 -130.78633,0c-2.83245,0 -4.42022,-1.26267 -4.42022,-3.37606z" fill="#595959" stroke="#8c8c8c" stroke-width="2.5"/><text transform="translate(179.14164,193.59207) scale(1.16045,1.16045)" font-size="40" xml:space="preserve" fill="#8c8c8c" stroke="#8c8c8c" stroke-width="2" font-family="&quot;Comic Sans&quot;, Handwriting" font-weight="400" text-anchor="start"><tspan x="0" dy="0">Global</tspan></text><text transform="translate(264.39334,166.17027) scale(0.27937,0.27937)" font-size="40" xml:space="preserve" fill="#8c8c8c" stroke="none" stroke-width="1" font-family="&quot;Comic Sans&quot;, Handwriting" font-weight="normal" text-anchor="start"><tspan x="0" dy="0">(t)</tspan></text></g></g></svg>