<svg version="1.1" xmlns="http://www.w3.org/2000/svg" xmlns:xlink="http://www.w3.org/1999/xlink" width="44.75191" height="31.2291" viewBox="0,0,44.75191,31.2291"><g transform="translate(-217.33696,-151.00894)"><g stroke-miterlimit="10"><path d="M248.65502,164.01674c1.50316,-2.22821 3.21734,-2.43086 5.39693,-1.29698c0.34668,0.18036 0.6735,1.09052 1.02791,1.32961c0.43956,0.29652 1.37749,0.19819 1.73242,0.50378c1.73046,1.48989 2.34601,3.07328 0.90028,5.21634c-1.46229,2.16761 -4.84372,4.59516 -7.20217,3.77529c-0.45155,-0.15697 -0.66175,-0.84581 -1.07677,-1.12578c-0.43666,-0.29458 -1.04761,-0.16813 -1.37304,-0.55055c-1.59932,-1.87943 -0.85327,-5.70576 0.59442,-7.85172z" fill="#96cc33" stroke="#719926" stroke-width="2"></path><path d="M255.84067,163.1753c0.37109,-0.19943 1.89357,-1.01766 1.89357,-1.01766c0,0 0.84885,-0.30799 1.21877,-0.31582c0.59526,-0.01259 2.01064,0.24748 2.01064,0.24748c0,0 -0.41436,0.81272 -0.8919,1.11731c-0.72639,0.46331 -2.98494,0.94191 -2.98494,0.94191c0,0 -1.08115,-0.32206 -1.36431,-0.46537c-0.14838,-0.07509 -0.03636,-0.42482 0.11816,-0.50785z" fill="#70b32d" stroke="#508020" stroke-width="1.5"></path><path d="M232.12967,163.5807c0.44303,-4.13827 2.64214,-5.65736 6.44636,-5.68448c0.6051,-0.0043 1.71167,1.00453 2.3699,1.07501c0.81635,0.08739 2.02873,-0.72662 2.73582,-0.56553c3.44749,0.78543 5.43684,2.50645 5.01074,6.4866c-0.43098,4.02573 -3.3001,9.79742 -7.12163,10.38384c-0.73167,0.11228 -1.51833,-0.67814 -2.2891,-0.76066c-0.81097,-0.08683 -1.55547,0.52878 -2.27787,0.24117c-3.55018,-1.41354 -5.30096,-7.19043 -4.87426,-11.17597z" fill="#ccbd33" stroke="#998e26" stroke-width="2"></path><path d="M241.35393,157.22387c0.36338,-0.54176 1.85422,-2.76439 1.85422,-2.76439c0,0 0.93857,-1.0364 1.43914,-1.31509c0.80551,-0.44844 2.93091,-1.11781 2.93091,-1.11781c0,0 0.02166,1.41241 -0.41122,2.17516c-0.65847,1.16026 -3.40268,3.45132 -3.40268,3.45132c0,0 -1.71289,0.34242 -2.20421,0.35143c-0.25746,0.00472 -0.35749,-0.55504 -0.2062,-0.78061z" fill="#70b32d" stroke="#508020" stroke-width="1.5"></path><path d="M233.04406,162.59699c1.22279,3.0399 1.13161,7.97353 -1.34619,9.87563c-0.50418,0.38704 -1.22682,0.06854 -1.84537,0.31735c-0.58789,0.23648 -1.03071,1.03331 -1.63121,1.10787c-3.13642,0.38941 -6.67793,-3.51174 -7.91305,-6.58231c-1.22114,-3.03579 -0.03945,-4.83233 2.49738,-6.21753c0.52031,-0.28411 1.65513,0.08628 2.27779,-0.16417c0.50205,-0.20194 1.14789,-1.24179 1.62479,-1.37309c2.99831,-0.82548 5.0662,-0.12013 6.33584,3.03627z" fill="#b32d38" stroke="#802028" stroke-width="2"></path><path d="M224.37355,159.65025c0.16922,0.14375 0.21515,0.60631 0.01159,0.65991c-0.38845,0.10229 -1.81199,0.21424 -1.81199,0.21424c0,0 -2.66849,-1.19122 -3.44469,-1.95726c-0.51028,-0.50361 -0.80765,-1.61937 -0.80765,-1.61937c0,0 1.82076,0.0534 2.55417,0.22682c0.45578,0.10778 1.42473,0.71405 1.42473,0.71405c0,0 1.66739,1.41639 2.07381,1.76162z" fill="#70b32d" stroke="#508020" stroke-width="1.5"></path><path d="M221.0625,179.26972c0,-1.53345 0,-9.50773 0,-9.50773h37.875c0,0 0,8.40768 0,9.78046c0,0.3661 -0.40314,0.6956 -1.12557,0.6956c-5.8928,0 -33.02984,0 -35.90909,0c-0.48688,0 -0.84034,-0.47895 -0.84034,-0.96833z" fill="#bf9960" stroke="#8c7046" stroke-width="4"></path></g></g></svg>