<svg version="1.1" xmlns="http://www.w3.org/2000/svg" xmlns:xlink="http://www.w3.org/1999/xlink" width="7.13397" height="12.38318" viewBox="0,0,7.13397,12.38318"><g transform="translate(-236.82292,-173.48497)"><g fill="#80001e" stroke="#4d0013" stroke-width="2" stroke-miterlimit="10"><path d="M241.01608,184.76155c-0.94336,0.40558 -2.06224,-0.39114 -2.79697,-1.62644c-0.68683,-1.15477 -0.58028,-2.59046 -0.40325,-4.07231c0.1063,-0.88985 0.00748,-1.89945 0.42428,-2.58564c0.58841,-0.9687 1.17977,-2.05393 1.94612,-1.98944c0.68049,0.05726 1.53874,1.15516 2.05576,2.02443c0.2489,0.41847 0.28913,0.83044 0.42443,1.33852c0.3133,1.17644 0.39205,2.55167 0.14278,3.75629c-0.11854,0.57287 -0.31127,1.10716 -0.58824,1.56314c0,0 -0.73685,1.39021 -1.2049,1.59145z"/></g></g></svg>